<svg id="svg" version="1.1" width="400" height="126.37485970819304" viewBox="0 0 400 126.37485970819304" xmlns="http://www.w3.org/2000/svg" xmlns:xlink="http://www.w3.org/1999/xlink" ><g id="svgg"><path id="path0" d="M0.000 63.167 L 0.000 126.333 200.000 126.333 L 400.000 126.333 400.000 63.167 L 400.000 0.000 200.000 0.000 L 0.000 0.000 0.000 63.167 M162.333 32.087 L 162.333 34.840 162.993 34.503 C 164.189 33.894,165.621 34.140,166.364 35.084 C 166.731 35.551,166.752 35.724,166.802 38.704 L 166.854 41.833 166.343 41.833 L 165.833 41.833 165.833 38.845 L 165.833 35.858 165.394 35.512 C 164.586 34.876,163.181 35.153,162.795 36.026 C 162.680 36.286,162.529 36.500,162.459 36.500 C 162.390 36.500,162.333 37.700,162.333 39.167 L 162.333 41.833 161.833 41.833 L 161.333 41.833 161.333 35.583 L 161.333 29.333 161.833 29.333 L 162.333 29.333 162.333 32.087 M226.333 35.583 L 226.333 41.833 225.917 41.833 L 225.500 41.833 225.500 35.583 L 225.500 29.333 225.917 29.333 L 226.333 29.333 226.333 35.583 M206.837 30.542 C 206.960 30.931,207.112 31.325,207.175 31.417 C 207.238 31.508,207.384 31.883,207.500 32.250 C 207.616 32.617,207.766 32.992,207.833 33.083 C 207.901 33.175,208.050 33.539,208.163 33.891 C 208.277 34.244,208.474 34.731,208.601 34.974 C 208.727 35.218,208.832 35.480,208.832 35.558 C 208.833 35.636,208.943 35.936,209.077 36.225 C 209.595 37.340,211.167 41.387,211.167 41.604 C 211.167 41.974,210.002 41.911,209.994 41.542 C 209.991 41.381,209.844 40.950,209.667 40.583 C 209.490 40.217,209.342 39.861,209.339 39.793 C 209.336 39.725,209.169 39.294,208.969 38.835 L 208.604 38.000 206.239 38.000 L 203.874 38.000 203.700 38.625 C 203.421 39.624,202.775 41.245,202.632 41.306 C 202.559 41.336,202.500 41.467,202.500 41.597 C 202.500 41.748,202.320 41.833,202.000 41.833 C 201.400 41.833,201.363 41.587,201.833 40.711 C 202.016 40.369,202.212 39.844,202.268 39.545 C 202.324 39.245,202.431 39.000,202.505 39.000 C 202.579 39.000,202.691 38.756,202.753 38.458 C 202.815 38.160,202.959 37.767,203.072 37.583 C 203.185 37.400,203.382 36.894,203.509 36.458 C 203.636 36.023,203.798 35.667,203.870 35.667 C 203.941 35.667,204.000 35.560,204.000 35.429 C 204.000 35.200,204.771 33.139,205.262 32.058 C 205.393 31.769,205.500 31.498,205.500 31.454 C 205.500 31.142,206.225 29.833,206.398 29.833 C 206.516 29.833,206.714 30.152,206.837 30.542 M158.333 30.439 C 159.384 31.016,159.667 31.355,159.667 32.037 C 159.667 32.783,159.623 32.797,159.034 32.238 C 156.379 29.711,151.000 31.478,151.000 34.876 C 151.000 35.117,150.925 35.360,150.833 35.417 C 150.742 35.473,150.667 35.736,150.667 36.000 C 150.667 36.264,150.742 36.527,150.833 36.583 C 150.925 36.640,151.000 36.883,151.000 37.124 C 151.000 40.447,156.776 42.383,159.083 39.834 C 159.538 39.330,159.691 39.428,159.635 40.185 C 159.548 41.336,158.218 41.917,155.667 41.917 L 153.750 41.917 152.718 41.285 C 152.150 40.938,151.513 40.439,151.301 40.175 C 150.525 39.209,150.333 38.928,150.332 38.758 C 150.332 38.662,150.209 38.358,150.061 38.083 C 149.209 36.510,149.998 33.114,151.567 31.604 C 153.185 30.046,156.560 29.465,158.333 30.439 M220.970 30.625 C 221.023 30.996,221.002 31.000,219.012 31.000 L 217.000 31.000 217.000 33.083 L 217.000 35.167 218.833 35.167 L 220.667 35.167 220.667 35.583 L 220.667 36.000 218.833 36.000 L 217.000 36.000 217.000 38.927 L 217.000 41.854 216.458 41.802 L 215.917 41.750 215.873 36.168 C 215.849 33.098,215.866 30.489,215.911 30.372 C 216.081 29.929,220.905 30.171,220.970 30.625 M223.274 31.750 C 223.411 31.887,223.499 32.168,223.470 32.375 C 223.390 32.935,222.275 32.928,222.196 32.366 C 222.091 31.632,222.768 31.245,223.274 31.750 M206.166 32.542 C 206.165 32.656,206.061 32.949,205.934 33.192 C 205.807 33.435,205.610 33.923,205.497 34.276 C 205.383 34.628,205.234 34.992,205.167 35.083 C 205.099 35.175,204.950 35.550,204.835 35.917 C 204.720 36.283,204.560 36.655,204.480 36.742 C 204.147 37.101,204.424 37.167,206.268 37.167 L 208.203 37.167 208.089 36.714 C 208.027 36.465,207.831 35.944,207.654 35.557 C 207.478 35.169,207.333 34.806,207.333 34.750 C 207.333 34.694,207.189 34.331,207.012 33.943 C 206.836 33.556,206.640 33.035,206.577 32.786 C 206.463 32.330,206.168 32.155,206.166 32.542 M173.616 34.590 C 176.021 35.861,176.450 39.294,174.433 41.129 C 172.590 42.806,168.828 42.013,168.396 39.857 C 168.338 39.565,168.225 39.286,168.145 39.237 C 168.065 39.187,168.000 38.706,168.000 38.167 C 168.000 37.627,168.065 37.146,168.145 37.097 C 168.225 37.047,168.334 36.787,168.388 36.518 C 168.512 35.899,169.614 34.728,170.214 34.578 C 170.465 34.515,170.711 34.396,170.761 34.315 C 170.968 33.981,172.798 34.158,173.616 34.590 M181.740 34.496 C 183.207 35.124,184.000 36.444,184.000 38.254 C 184.000 38.837,183.925 39.360,183.833 39.417 C 183.742 39.473,183.667 39.673,183.667 39.860 C 183.667 40.047,183.346 40.526,182.953 40.924 C 180.467 43.446,176.333 41.708,176.333 38.140 C 176.333 36.576,177.662 34.500,178.663 34.500 C 178.837 34.500,179.027 34.425,179.083 34.333 C 179.261 34.045,180.926 34.147,181.740 34.496 M188.219 34.358 C 188.420 34.463,188.766 34.729,188.988 34.948 L 189.393 35.348 189.033 35.708 L 188.673 36.068 188.202 35.617 C 187.401 34.850,186.167 35.122,186.167 36.066 C 186.167 36.544,186.669 36.984,187.862 37.549 C 189.610 38.378,190.128 40.250,188.939 41.439 C 187.694 42.685,184.667 41.747,184.667 40.117 C 184.667 39.770,185.375 39.540,185.478 39.853 C 185.667 40.428,186.638 41.167,187.204 41.167 C 188.729 41.167,189.073 39.024,187.621 38.571 C 187.417 38.507,187.213 38.409,187.167 38.353 C 187.121 38.296,186.737 38.076,186.313 37.863 C 185.196 37.302,184.851 36.260,185.419 35.163 C 185.870 34.289,187.304 33.877,188.219 34.358 M195.383 34.442 C 196.481 35.009,197.333 36.189,197.333 37.141 C 197.333 37.394,197.420 37.687,197.526 37.793 C 198.084 38.351,197.403 38.500,194.292 38.500 L 191.292 38.500 191.397 39.028 C 191.713 40.606,193.528 41.592,195.050 41.013 C 195.556 40.820,196.333 40.113,196.333 39.845 C 196.333 39.510,197.239 39.708,197.306 40.057 C 197.384 40.472,195.987 41.761,195.312 41.896 C 192.267 42.505,190.433 41.137,190.422 38.250 C 190.411 35.203,193.003 33.213,195.383 34.442 M233.039 34.481 C 233.904 34.852,234.592 35.610,234.755 36.371 C 234.819 36.671,234.943 37.006,235.031 37.114 C 235.118 37.223,235.166 37.560,235.136 37.864 L 235.083 38.417 231.980 38.462 L 228.877 38.507 228.980 38.962 C 229.468 41.111,232.070 41.918,233.493 40.361 C 234.194 39.594,234.712 39.490,234.800 40.100 C 235.018 41.619,231.121 42.635,229.441 41.498 C 225.811 39.042,229.030 32.763,233.039 34.481 M223.167 38.167 L 223.167 41.833 222.750 41.833 L 222.333 41.833 222.333 38.167 L 222.333 34.500 222.750 34.500 L 223.167 34.500 223.167 38.167 M170.719 35.335 C 168.618 36.181,168.628 40.198,170.733 40.986 C 172.284 41.566,174.132 40.749,174.433 39.348 C 174.484 39.111,174.610 38.743,174.713 38.531 C 174.854 38.242,174.851 38.066,174.700 37.825 C 174.590 37.649,174.500 37.372,174.499 37.211 C 174.496 35.818,172.266 34.711,170.719 35.335 M179.052 35.326 C 176.273 36.514,177.174 41.167,180.183 41.167 C 183.783 41.167,183.971 35.411,180.377 35.221 C 179.849 35.193,179.252 35.240,179.052 35.326 M192.917 35.327 C 192.601 35.459,192.179 35.835,191.705 36.405 C 191.588 36.545,191.448 36.887,191.392 37.163 L 191.292 37.667 193.882 37.667 L 196.473 37.667 196.304 37.056 C 195.879 35.515,194.342 34.731,192.917 35.327 M230.500 35.284 C 229.840 35.526,229.000 36.688,229.000 37.359 C 229.000 37.645,229.181 37.667,231.521 37.667 L 234.042 37.667 233.935 37.131 C 233.631 35.614,231.999 34.736,230.500 35.284 " stroke="none" fill="#54b4dc" fill-rule="evenodd"></path><path id="path1" d="M161.500 35.583 C 161.500 40.672,161.538 41.667,161.732 41.667 C 161.918 41.667,161.977 41.156,162.029 39.125 C 162.117 35.661,162.820 34.566,164.726 34.923 C 165.951 35.153,166.076 35.493,166.139 38.763 C 166.185 41.207,166.234 41.667,166.444 41.667 C 166.659 41.667,166.686 41.247,166.638 38.677 L 166.583 35.688 166.117 35.201 C 165.212 34.257,163.235 34.198,162.492 35.092 C 162.067 35.605,162.000 35.239,162.000 32.417 C 162.000 29.935,161.963 29.500,161.750 29.500 C 161.532 29.500,161.500 30.287,161.500 35.583 M225.667 35.583 C 225.667 40.880,225.699 41.667,225.917 41.667 C 226.134 41.667,226.167 40.880,226.167 35.583 C 226.167 30.287,226.134 29.500,225.917 29.500 C 225.699 29.500,225.667 30.287,225.667 35.583 M206.297 30.179 C 205.556 32.052,204.764 34.020,204.591 34.417 C 204.472 34.692,204.173 35.442,203.928 36.083 C 203.683 36.725,203.413 37.400,203.329 37.583 C 203.200 37.861,202.412 39.804,201.823 41.292 C 201.701 41.600,201.731 41.667,201.986 41.667 C 202.227 41.667,202.462 41.246,203.034 39.792 L 203.772 37.917 206.321 37.917 L 208.870 37.917 209.586 39.750 C 210.167 41.240,210.370 41.594,210.669 41.639 C 210.872 41.670,211.000 41.632,210.954 41.556 C 210.817 41.325,207.333 32.525,207.333 32.409 C 207.333 32.349,207.222 32.064,207.087 31.775 C 206.951 31.486,206.739 30.956,206.616 30.596 C 206.476 30.188,206.356 30.031,206.297 30.179 M154.250 30.321 C 149.276 31.733,148.482 38.714,153.017 41.172 C 155.244 42.379,159.485 41.675,159.497 40.096 C 159.500 39.786,159.487 39.787,159.125 40.119 C 157.308 41.783,153.983 41.665,152.240 39.874 C 147.639 35.145,153.568 27.856,158.842 31.758 C 159.323 32.113,159.426 32.139,159.472 31.917 C 159.692 30.859,156.159 29.780,154.250 30.321 M216.167 36.000 C 216.167 41.556,216.173 41.667,216.500 41.667 C 216.821 41.667,216.833 41.556,216.833 38.750 L 216.833 35.833 218.667 35.833 C 220.185 35.833,220.500 35.790,220.500 35.583 C 220.500 35.376,220.185 35.333,218.662 35.333 L 216.824 35.333 216.870 33.125 L 216.917 30.917 218.792 30.870 C 220.307 30.831,220.667 30.776,220.667 30.578 C 220.667 30.375,220.283 30.333,218.417 30.333 L 216.167 30.333 216.167 36.000 M207.661 35.014 C 207.664 35.159,207.720 35.331,207.785 35.397 C 207.916 35.527,208.500 37.008,208.500 37.208 C 208.500 37.277,207.525 37.333,206.333 37.333 C 203.946 37.333,203.952 37.337,204.406 36.297 C 204.537 35.996,204.956 34.962,205.337 34.000 C 206.310 31.543,206.276 31.557,207.021 33.283 C 207.370 34.090,207.657 34.869,207.661 35.014 M222.611 31.944 C 222.415 32.140,222.492 32.667,222.717 32.667 C 223.096 32.667,223.349 32.302,223.142 32.054 C 222.940 31.810,222.779 31.777,222.611 31.944 M171.120 34.516 C 169.688 34.852,168.988 35.488,168.490 36.906 C 166.949 41.289,173.148 43.960,175.106 39.757 C 176.419 36.936,174.054 33.827,171.120 34.516 M179.750 34.453 C 175.006 35.424,175.710 42.148,180.519 41.800 C 183.630 41.575,184.920 37.472,182.557 35.318 C 181.866 34.688,180.564 34.287,179.750 34.453 M186.385 34.658 C 184.691 35.427,185.089 37.085,187.204 38.074 C 188.738 38.792,189.170 39.629,188.548 40.681 C 187.944 41.704,186.258 41.598,185.607 40.495 C 185.288 39.956,184.768 39.794,184.951 40.292 C 185.843 42.717,189.333 42.236,189.333 39.687 C 189.333 38.838,188.908 38.349,187.583 37.675 C 186.164 36.953,185.944 36.750,185.944 36.160 C 185.944 35.036,187.248 34.502,188.146 35.259 C 188.677 35.705,189.209 35.639,188.915 35.164 C 188.505 34.500,187.274 34.254,186.385 34.658 M192.996 34.587 C 189.290 35.739,189.953 41.595,193.813 41.800 C 195.391 41.884,197.522 40.622,196.882 39.982 C 196.747 39.847,196.648 39.889,196.516 40.137 C 195.356 42.304,191.361 41.455,191.163 39.000 C 191.094 38.135,190.975 38.167,194.250 38.167 C 197.698 38.167,197.492 38.262,197.076 36.861 C 196.515 34.971,194.813 34.023,192.996 34.587 M230.583 34.608 C 226.780 35.770,227.619 41.833,231.583 41.833 C 232.957 41.833,235.080 40.513,234.553 39.986 C 234.422 39.856,234.191 39.998,233.728 40.495 C 232.312 42.010,229.960 41.636,229.016 39.747 C 228.280 38.273,228.299 38.262,231.833 38.167 L 234.917 38.083 234.866 37.583 C 234.644 35.404,232.607 33.989,230.583 34.608 M222.500 38.167 C 222.500 41.167,222.536 41.667,222.750 41.667 C 222.964 41.667,223.000 41.167,223.000 38.167 C 223.000 35.167,222.964 34.667,222.750 34.667 C 222.536 34.667,222.500 35.167,222.500 38.167 M172.729 34.991 C 174.903 35.495,175.689 39.044,173.973 40.604 C 172.023 42.377,169.155 41.252,168.884 38.606 C 168.628 36.108,170.392 34.449,172.729 34.991 M181.219 35.075 C 182.476 35.523,183.157 36.602,183.163 38.156 C 183.178 41.941,178.303 42.731,177.252 39.113 C 176.490 36.493,178.748 34.194,181.219 35.075 M195.213 35.153 C 195.765 35.363,196.482 36.427,196.613 37.231 L 196.712 37.842 193.981 37.796 C 190.838 37.743,190.737 37.679,191.566 36.264 C 192.312 34.992,193.688 34.573,195.213 35.153 M232.361 35.005 C 233.337 35.276,234.604 37.094,234.234 37.693 C 234.102 37.907,228.876 37.870,228.742 37.654 C 228.681 37.555,228.753 37.155,228.902 36.766 C 229.467 35.286,230.846 34.584,232.361 35.005 " stroke="none" fill="#f6f9fb" fill-rule="evenodd"></path><path id="path2" d="M161.414 35.498 C 161.417 42.096,161.460 42.440,162.197 41.703 C 162.301 41.599,162.207 41.570,161.931 41.623 L 161.504 41.705 161.457 35.477 L 161.410 29.250 161.414 35.498 M162.166 31.466 L 162.248 33.583 162.296 31.597 C 162.323 30.505,162.286 29.552,162.214 29.480 C 162.142 29.408,162.120 30.302,162.166 31.466 M225.580 35.583 C 225.583 41.632,225.590 41.750,225.917 41.766 C 226.166 41.779,226.177 41.765,225.960 41.713 C 225.693 41.649,225.667 41.176,225.624 35.530 L 225.577 29.417 225.580 35.583 M156.347 30.059 C 156.385 30.092,156.679 30.167,157.000 30.226 C 157.410 30.301,157.509 30.284,157.333 30.169 C 157.107 30.021,156.182 29.918,156.347 30.059 M216.068 33.000 C 216.068 34.512,216.093 35.131,216.124 34.375 C 216.155 33.619,216.155 32.381,216.124 31.625 C 216.093 30.869,216.068 31.488,216.068 33.000 M151.406 31.875 L 150.917 32.417 151.458 31.927 C 151.756 31.658,152.000 31.414,152.000 31.385 C 152.000 31.257,151.862 31.370,151.406 31.875 M222.222 32.096 C 222.165 32.246,222.253 32.479,222.426 32.638 C 222.713 32.900,222.718 32.899,222.514 32.627 C 222.394 32.468,222.340 32.224,222.393 32.085 C 222.446 31.947,222.452 31.833,222.406 31.833 C 222.360 31.833,222.277 31.952,222.222 32.096 M206.065 32.422 C 205.913 32.654,205.818 32.874,205.856 32.911 C 205.893 32.948,206.049 32.758,206.204 32.489 C 206.548 31.890,206.446 31.840,206.065 32.422 M222.412 38.208 L 222.417 41.750 222.794 41.772 C 223.102 41.790,223.110 41.780,222.839 41.719 C 222.522 41.648,222.504 41.485,222.457 38.155 L 222.406 34.666 222.412 38.208 M191.418 35.332 C 191.156 35.606,190.973 35.856,191.012 35.889 C 191.051 35.922,191.297 35.697,191.558 35.391 C 192.148 34.699,192.060 34.662,191.418 35.332 M163.051 35.429 L 162.583 35.858 163.125 35.481 C 163.423 35.274,163.667 35.081,163.667 35.052 C 163.667 34.920,163.482 35.033,163.051 35.429 M195.014 35.208 C 195.052 35.231,195.308 35.438,195.583 35.667 L 196.083 36.083 195.679 35.625 C 195.457 35.373,195.201 35.167,195.110 35.167 C 195.019 35.167,194.976 35.185,195.014 35.208 M166.520 35.837 C 166.773 36.583,166.915 36.728,166.762 36.083 C 166.696 35.808,166.571 35.510,166.484 35.420 C 166.396 35.331,166.412 35.518,166.520 35.837 M178.073 35.875 L 177.583 36.417 178.125 35.927 C 178.630 35.471,178.743 35.333,178.615 35.333 C 178.586 35.333,178.342 35.577,178.073 35.875 M216.077 38.792 C 216.083 41.746,216.084 41.750,216.461 41.772 C 216.767 41.790,216.776 41.780,216.506 41.719 C 216.193 41.649,216.171 41.483,216.123 38.739 L 216.071 35.833 216.077 38.792 M217.875 35.956 C 218.402 35.990,219.265 35.990,219.792 35.956 C 220.319 35.923,219.887 35.896,218.833 35.896 C 217.779 35.896,217.348 35.923,217.875 35.956 M149.836 36.931 C 149.837 37.198,149.910 37.529,149.998 37.667 C 150.106 37.837,150.125 37.704,150.055 37.250 C 149.929 36.426,149.833 36.286,149.836 36.931 M228.104 36.923 C 228.047 37.072,228.006 37.319,228.014 37.472 C 228.022 37.625,228.095 37.529,228.175 37.258 C 228.333 36.732,228.277 36.472,228.104 36.923 M204.313 37.214 C 204.386 37.286,205.301 37.323,206.347 37.297 L 208.250 37.248 206.216 37.166 C 205.097 37.120,204.241 37.142,204.313 37.214 M175.542 38.083 C 175.544 38.450,175.578 38.580,175.618 38.373 C 175.658 38.166,175.656 37.866,175.615 37.706 C 175.573 37.547,175.540 37.717,175.542 38.083 M176.372 38.167 C 176.372 38.487,176.406 38.619,176.448 38.458 C 176.490 38.298,176.490 38.035,176.448 37.875 C 176.406 37.715,176.372 37.846,176.372 38.167 M177.205 38.167 C 177.205 38.487,177.240 38.619,177.282 38.458 C 177.323 38.298,177.323 38.035,177.282 37.875 C 177.240 37.715,177.205 37.846,177.205 38.167 M183.289 40.209 L 182.995 40.750 183.331 40.357 C 183.617 40.022,183.769 39.664,183.625 39.668 C 183.602 39.668,183.451 39.912,183.289 40.209 M196.094 40.292 C 195.734 40.752,195.705 40.829,195.985 40.585 C 196.319 40.293,196.760 39.667,196.631 39.667 C 196.605 39.667,196.363 39.948,196.094 40.292 M191.000 40.552 C 191.000 40.581,191.244 40.825,191.542 41.094 L 192.083 41.583 191.594 41.042 C 191.138 40.537,191.000 40.423,191.000 40.552 M180.833 41.167 C 180.490 41.277,180.475 41.303,180.750 41.314 C 180.933 41.322,181.196 41.256,181.333 41.167 C 181.625 40.978,181.423 40.978,180.833 41.167 M185.537 41.422 C 185.786 41.684,186.020 41.865,186.056 41.824 C 186.093 41.784,185.889 41.569,185.603 41.348 L 185.083 40.945 185.537 41.422 M155.542 41.282 C 155.702 41.323,155.965 41.323,156.125 41.282 C 156.285 41.240,156.154 41.205,155.833 41.205 C 155.512 41.205,155.381 41.240,155.542 41.282 " stroke="none" fill="#98d0e8" fill-rule="evenodd"></path><path id="path3" d="M161.708 29.438 C 161.972 29.516,162.000 29.807,162.000 32.429 C 162.000 34.026,162.056 35.333,162.125 35.334 C 162.465 35.334,162.092 29.421,161.750 29.387 C 161.491 29.360,161.481 29.372,161.708 29.438 M225.873 29.438 C 226.140 29.517,226.166 29.999,226.209 35.637 L 226.256 41.750 226.253 35.586 C 226.250 29.545,226.243 29.420,225.917 29.387 C 225.661 29.361,225.651 29.373,225.873 29.438 M155.460 30.118 C 155.668 30.158,155.968 30.156,156.127 30.115 C 156.286 30.073,156.117 30.040,155.750 30.042 C 155.383 30.044,155.253 30.078,155.460 30.118 M217.875 30.956 C 218.402 30.990,219.265 30.990,219.792 30.956 C 220.319 30.923,219.887 30.896,218.833 30.896 C 217.779 30.896,217.348 30.923,217.875 30.956 M151.575 31.875 L 150.917 32.583 151.625 31.925 C 152.284 31.312,152.410 31.167,152.284 31.167 C 152.257 31.167,151.938 31.485,151.575 31.875 M159.519 31.885 C 159.507 32.075,159.423 32.143,159.292 32.069 C 159.126 31.975,159.126 31.997,159.289 32.173 C 159.544 32.448,159.722 32.294,159.617 31.888 C 159.542 31.597,159.538 31.597,159.519 31.885 M222.505 31.911 C 222.393 32.045,222.340 32.252,222.388 32.369 C 222.443 32.508,222.478 32.484,222.487 32.302 C 222.506 31.896,222.803 31.769,223.132 32.027 C 223.388 32.228,223.394 32.221,223.188 31.958 C 222.909 31.603,222.769 31.593,222.505 31.911 M205.527 33.424 C 205.248 34.037,205.301 34.167,205.603 33.610 C 205.744 33.350,205.828 33.106,205.790 33.068 C 205.752 33.030,205.634 33.190,205.527 33.424 M150.360 33.590 C 150.081 34.203,150.134 34.334,150.436 33.777 C 150.577 33.517,150.662 33.273,150.623 33.235 C 150.585 33.196,150.467 33.357,150.360 33.590 M204.695 33.825 C 204.597 34.105,204.553 34.333,204.596 34.333 C 204.709 34.333,205.023 33.468,204.941 33.385 C 204.903 33.347,204.792 33.545,204.695 33.825 M170.667 34.502 C 170.491 34.618,170.590 34.634,171.000 34.559 C 171.719 34.427,171.854 34.332,171.319 34.336 C 171.098 34.337,170.804 34.412,170.667 34.502 M179.000 34.502 C 178.824 34.618,178.923 34.634,179.333 34.559 C 180.052 34.427,180.188 34.332,179.653 34.336 C 179.431 34.337,179.137 34.412,179.000 34.502 M186.240 34.593 C 185.922 34.848,185.922 34.849,186.250 34.698 C 186.433 34.614,186.696 34.503,186.833 34.452 C 187.049 34.372,187.048 34.358,186.824 34.346 C 186.681 34.339,186.418 34.450,186.240 34.593 M187.667 34.452 C 187.804 34.503,188.067 34.614,188.250 34.698 C 188.578 34.849,188.578 34.848,188.260 34.593 C 188.082 34.450,187.819 34.339,187.676 34.346 C 187.452 34.358,187.451 34.372,187.667 34.452 M192.833 34.508 C 192.651 34.631,192.718 34.647,193.083 34.565 C 193.696 34.428,193.829 34.332,193.403 34.336 C 193.227 34.337,192.971 34.415,192.833 34.508 M230.500 34.508 C 230.317 34.631,230.385 34.647,230.750 34.565 C 231.363 34.428,231.496 34.332,231.069 34.336 C 230.894 34.337,230.637 34.415,230.500 34.508 M231.847 34.393 C 231.885 34.426,232.142 34.503,232.417 34.565 C 232.782 34.647,232.849 34.631,232.667 34.508 C 232.442 34.355,231.680 34.249,231.847 34.393 M222.705 34.604 C 222.964 34.681,222.998 35.039,223.043 38.137 L 223.093 41.583 223.088 38.086 C 223.084 34.712,223.071 34.586,222.750 34.553 C 222.497 34.527,222.486 34.540,222.705 34.604 M171.542 34.948 C 171.702 34.990,171.965 34.990,172.125 34.948 C 172.285 34.906,172.154 34.872,171.833 34.872 C 171.512 34.872,171.381 34.906,171.542 34.948 M179.875 34.948 C 180.035 34.990,180.298 34.990,180.458 34.948 C 180.619 34.906,180.487 34.872,180.167 34.872 C 179.846 34.872,179.715 34.906,179.875 34.948 M182.167 34.885 C 182.167 34.914,182.410 35.158,182.708 35.427 L 183.250 35.917 182.760 35.375 C 182.304 34.870,182.167 34.757,182.167 34.885 M193.542 34.948 C 193.702 34.990,193.965 34.990,194.125 34.948 C 194.285 34.906,194.154 34.872,193.833 34.872 C 193.512 34.872,193.381 34.906,193.542 34.948 M165.437 35.333 C 165.632 35.563,165.832 35.862,165.882 36.000 C 165.961 36.214,165.976 36.212,165.987 35.987 C 165.994 35.843,165.794 35.543,165.542 35.321 L 165.083 34.917 165.437 35.333 M217.714 35.290 C 218.245 35.323,219.070 35.323,219.548 35.289 C 220.026 35.256,219.592 35.229,218.583 35.229 C 217.575 35.229,217.184 35.257,217.714 35.290 M229.573 35.708 L 229.083 36.250 229.625 35.760 C 230.130 35.304,230.243 35.167,230.115 35.167 C 230.086 35.167,229.842 35.410,229.573 35.708 M150.545 36.000 C 150.545 36.412,150.578 36.581,150.618 36.375 C 150.657 36.169,150.657 35.831,150.618 35.625 C 150.578 35.419,150.545 35.587,150.545 36.000 M149.872 36.000 C 149.872 36.321,149.906 36.452,149.948 36.292 C 149.990 36.131,149.990 35.869,149.948 35.708 C 149.906 35.548,149.872 35.679,149.872 36.000 M208.695 36.009 C 208.792 36.288,208.903 36.486,208.941 36.448 C 209.023 36.366,208.709 35.500,208.596 35.500 C 208.553 35.500,208.597 35.729,208.695 36.009 M166.068 39.000 C 166.068 40.512,166.093 41.131,166.124 40.375 C 166.155 39.619,166.155 38.381,166.124 37.625 C 166.093 36.869,166.068 37.487,166.068 39.000 M166.734 39.083 C 166.734 40.550,166.760 41.128,166.791 40.367 C 166.822 39.606,166.822 38.406,166.790 37.700 C 166.759 36.994,166.734 37.617,166.734 39.083 M203.361 37.158 C 203.264 37.438,203.219 37.667,203.263 37.667 C 203.375 37.667,203.690 36.801,203.607 36.718 C 203.569 36.681,203.459 36.878,203.361 37.158 M162.066 39.417 C 162.066 40.700,162.092 41.203,162.124 40.534 C 162.156 39.866,162.155 38.816,162.123 38.201 C 162.091 37.586,162.065 38.133,162.066 39.417 M228.720 37.417 C 228.763 37.832,234.182 37.950,234.265 37.538 C 234.289 37.421,234.270 37.402,234.224 37.496 C 234.058 37.831,228.872 37.716,228.772 37.375 C 228.705 37.148,228.693 37.158,228.720 37.417 M192.625 37.791 C 193.381 37.822,194.619 37.822,195.375 37.791 C 196.131 37.760,195.512 37.735,194.000 37.735 C 192.487 37.735,191.869 37.760,192.625 37.791 M228.039 38.167 C 228.039 38.487,228.073 38.619,228.115 38.458 C 228.157 38.298,228.157 38.035,228.115 37.875 C 228.073 37.715,228.039 37.846,228.039 38.167 M203.666 38.204 C 203.500 38.546,203.505 38.554,203.718 38.292 C 203.992 37.952,208.727 37.842,208.890 38.171 C 208.937 38.265,208.956 38.246,208.932 38.129 C 208.842 37.681,203.885 37.751,203.666 38.204 M231.921 38.125 C 230.273 38.152,228.871 38.229,228.804 38.296 C 228.737 38.362,230.104 38.395,231.841 38.368 C 233.710 38.339,235.000 38.254,235.000 38.160 C 235.000 38.072,234.981 38.017,234.958 38.038 C 234.935 38.058,233.569 38.098,231.921 38.125 M192.717 38.291 C 193.616 38.321,195.041 38.321,195.884 38.291 C 196.727 38.261,195.992 38.236,194.250 38.236 C 192.508 38.236,191.818 38.261,192.717 38.291 M187.681 38.375 C 187.719 38.398,187.975 38.604,188.250 38.833 L 188.750 39.250 188.346 38.792 C 188.124 38.540,187.867 38.333,187.777 38.333 C 187.686 38.333,187.642 38.352,187.681 38.375 M183.686 38.861 C 183.675 39.014,183.624 39.277,183.571 39.445 C 183.480 39.734,183.485 39.735,183.665 39.453 C 183.770 39.290,183.822 39.027,183.781 38.870 C 183.713 38.612,183.703 38.611,183.686 38.861 M228.690 38.833 C 228.690 38.971,228.755 39.233,228.833 39.417 C 228.924 39.627,228.977 39.658,228.977 39.500 C 228.977 39.362,228.912 39.100,228.833 38.917 C 228.743 38.707,228.690 38.676,228.690 38.833 M189.375 39.750 C 189.377 40.117,189.411 40.247,189.451 40.040 C 189.491 39.832,189.490 39.532,189.448 39.373 C 189.406 39.214,189.374 39.383,189.375 39.750 M158.983 40.130 L 158.583 40.583 159.064 40.167 L 159.546 39.750 159.464 40.203 C 159.418 40.453,159.446 40.617,159.524 40.568 C 159.709 40.454,159.709 39.879,159.524 39.765 C 159.446 39.717,159.202 39.881,158.983 40.130 M196.591 39.821 C 196.525 39.928,196.570 39.989,196.696 39.962 C 196.823 39.936,196.906 40.048,196.891 40.226 C 196.871 40.453,196.914 40.486,197.050 40.350 C 197.186 40.214,197.165 40.094,196.971 39.899 C 196.786 39.715,196.671 39.691,196.591 39.821 M169.318 40.139 C 169.408 40.307,169.613 40.550,169.773 40.680 C 169.953 40.827,169.913 40.710,169.667 40.375 C 169.229 39.777,169.065 39.666,169.318 40.139 M173.929 40.484 L 173.441 41.083 174.004 40.547 C 174.313 40.252,174.533 39.982,174.491 39.948 C 174.450 39.913,174.197 40.155,173.929 40.484 M177.916 40.474 C 178.098 40.689,178.397 40.941,178.581 41.036 C 178.935 41.217,178.884 41.161,178.085 40.498 C 177.603 40.098,177.597 40.097,177.916 40.474 M234.073 40.875 L 233.583 41.417 234.125 40.927 C 234.630 40.471,234.743 40.333,234.615 40.333 C 234.586 40.333,234.342 40.577,234.073 40.875 M232.917 41.011 C 232.642 41.187,232.502 41.332,232.607 41.332 C 232.711 41.333,232.973 41.186,233.190 41.006 C 233.685 40.593,233.566 40.595,232.917 41.011 M154.378 41.865 C 154.491 41.936,155.108 41.987,155.750 41.978 C 157.104 41.959,156.903 41.877,155.295 41.793 C 154.678 41.761,154.266 41.793,154.378 41.865 M179.034 41.858 C 179.153 41.933,179.662 41.990,180.167 41.984 C 181.274 41.971,181.101 41.884,179.784 41.790 C 179.246 41.752,178.914 41.782,179.034 41.858 M230.558 41.872 C 230.663 41.940,231.125 41.995,231.583 41.995 C 232.042 41.995,232.503 41.940,232.609 41.872 C 232.715 41.805,232.253 41.750,231.583 41.750 C 230.913 41.750,230.452 41.805,230.558 41.872 M171.375 41.953 C 171.627 41.991,172.040 41.991,172.292 41.953 C 172.544 41.915,172.338 41.883,171.833 41.883 C 171.329 41.883,171.123 41.915,171.375 41.953 M186.792 41.951 C 186.998 41.991,187.335 41.991,187.542 41.951 C 187.748 41.911,187.579 41.879,187.167 41.879 C 186.754 41.879,186.585 41.911,186.792 41.951 M193.542 41.953 C 193.794 41.991,194.206 41.991,194.458 41.953 C 194.710 41.915,194.504 41.883,194.000 41.883 C 193.496 41.883,193.290 41.915,193.542 41.953 " stroke="none" fill="#bfe4f0" fill-rule="evenodd"></path><path id="path4" d="M153.875 30.172 C 153.317 30.396,153.421 30.510,154.000 30.308 C 154.275 30.212,154.500 30.104,154.500 30.067 C 154.500 29.968,154.297 30.002,153.875 30.172 M215.949 30.274 C 215.792 30.430,215.801 41.627,215.958 41.724 C 216.027 41.767,216.063 39.221,216.037 36.068 L 215.992 30.333 218.401 30.333 C 220.764 30.333,220.812 30.340,220.891 30.708 C 220.962 31.039,220.968 31.034,220.944 30.667 L 220.917 30.250 218.490 30.204 C 217.156 30.179,216.012 30.210,215.949 30.274 M216.898 33.083 C 216.898 34.275,216.925 34.741,216.957 34.118 C 216.989 33.496,216.989 32.521,216.957 31.951 C 216.924 31.382,216.898 31.892,216.898 33.083 M222.312 31.777 C 222.108 32.025,222.119 32.036,222.417 31.883 C 222.600 31.789,222.862 31.670,223.000 31.619 C 223.172 31.555,223.139 31.522,222.895 31.513 C 222.700 31.506,222.438 31.625,222.312 31.777 M223.314 32.297 C 223.259 32.628,223.283 32.784,223.376 32.691 C 223.460 32.607,223.500 32.361,223.466 32.144 C 223.414 31.811,223.390 31.834,223.314 32.297 M150.925 34.375 C 150.776 34.856,150.724 35.484,150.839 35.413 C 150.907 35.371,150.994 35.073,151.031 34.752 C 151.100 34.167,151.047 33.981,150.925 34.375 M163.875 34.286 C 164.127 34.324,164.540 34.324,164.792 34.286 C 165.044 34.248,164.837 34.217,164.333 34.217 C 163.829 34.217,163.623 34.248,163.875 34.286 M170.776 34.292 C 170.733 34.360,171.247 34.417,171.917 34.417 C 172.587 34.417,173.100 34.360,173.058 34.292 C 173.015 34.223,172.502 34.167,171.917 34.167 C 171.332 34.167,170.818 34.223,170.776 34.292 M179.625 34.287 C 179.923 34.324,180.410 34.324,180.708 34.287 C 181.006 34.250,180.762 34.220,180.167 34.220 C 179.571 34.220,179.327 34.250,179.625 34.287 M186.877 34.286 C 187.131 34.325,187.506 34.324,187.711 34.284 C 187.916 34.244,187.708 34.213,187.250 34.214 C 186.792 34.216,186.624 34.248,186.877 34.286 M193.083 34.251 C 193.452 34.380,195.322 34.429,195.126 34.305 C 195.011 34.232,194.467 34.177,193.917 34.182 C 193.367 34.188,192.992 34.219,193.083 34.251 M231.128 34.287 C 231.428 34.325,231.878 34.324,232.128 34.286 C 232.378 34.248,232.133 34.217,231.583 34.218 C 231.033 34.219,230.828 34.250,231.128 34.287 M229.370 34.958 C 228.971 35.348,228.964 35.367,229.325 35.086 C 230.037 34.532,230.071 34.500,229.953 34.500 C 229.890 34.500,229.628 34.706,229.370 34.958 M233.552 34.861 C 233.809 35.076,234.172 35.438,234.358 35.667 C 234.544 35.896,234.640 35.971,234.573 35.833 C 234.379 35.437,233.780 34.818,233.417 34.637 C 233.227 34.542,233.284 34.638,233.552 34.861 M163.609 35.125 C 163.567 35.194,163.893 35.250,164.333 35.250 C 164.774 35.250,165.100 35.194,165.058 35.125 C 165.015 35.056,164.689 35.000,164.333 35.000 C 163.977 35.000,163.652 35.056,163.609 35.125 M171.544 35.120 C 171.797 35.158,172.172 35.157,172.377 35.117 C 172.582 35.078,172.375 35.046,171.917 35.048 C 171.458 35.049,171.291 35.081,171.544 35.120 M179.276 35.125 C 179.234 35.194,179.673 35.250,180.251 35.250 C 180.829 35.250,181.216 35.195,181.109 35.128 C 180.856 34.966,179.375 34.964,179.276 35.125 M186.605 35.132 C 186.560 35.204,186.781 35.234,187.095 35.197 C 187.409 35.160,187.667 35.101,187.667 35.065 C 187.667 34.940,186.686 35.001,186.605 35.132 M189.081 35.182 C 189.286 35.720,188.704 35.923,188.203 35.487 L 187.750 35.093 188.208 35.584 L 188.666 36.075 189.035 35.706 C 189.333 35.408,189.363 35.297,189.192 35.127 C 189.021 34.957,189.000 34.968,189.081 35.182 M193.058 35.128 C 192.952 35.195,193.338 35.250,193.917 35.250 C 194.495 35.250,194.882 35.195,194.776 35.128 C 194.670 35.060,194.283 35.005,193.917 35.005 C 193.550 35.005,193.163 35.060,193.058 35.128 M230.609 35.125 C 230.567 35.194,230.968 35.250,231.500 35.250 C 232.032 35.250,232.433 35.194,232.391 35.125 C 232.348 35.056,231.948 35.000,231.500 35.000 C 231.052 35.000,230.652 35.056,230.609 35.125 M149.712 36.000 C 149.712 36.412,149.745 36.581,149.784 36.375 C 149.824 36.169,149.824 35.831,149.784 35.625 C 149.745 35.419,149.712 35.587,149.712 36.000 M216.902 38.917 C 216.902 40.567,216.927 41.219,216.958 40.367 C 216.988 39.514,216.988 38.164,216.957 37.367 C 216.927 36.569,216.902 37.267,216.902 38.917 M150.814 37.036 C 150.890 37.499,150.914 37.523,150.966 37.189 C 151.000 36.972,150.960 36.726,150.876 36.642 C 150.783 36.550,150.759 36.705,150.814 37.036 M174.466 37.178 C 174.506 37.449,174.591 37.703,174.656 37.743 C 174.720 37.783,174.740 37.594,174.701 37.322 C 174.661 37.051,174.575 36.797,174.511 36.757 C 174.446 36.717,174.426 36.906,174.466 37.178 M176.437 36.923 C 176.380 37.072,176.340 37.319,176.348 37.472 C 176.356 37.625,176.428 37.529,176.509 37.258 C 176.666 36.732,176.610 36.472,176.437 36.923 M177.437 36.923 C 177.380 37.072,177.340 37.319,177.348 37.472 C 177.356 37.625,177.428 37.529,177.509 37.258 C 177.666 36.732,177.610 36.472,177.437 36.923 M165.875 37.583 C 165.877 37.950,165.911 38.080,165.951 37.873 C 165.991 37.666,165.990 37.366,165.948 37.206 C 165.906 37.047,165.874 37.217,165.875 37.583 M168.111 37.111 C 167.958 37.264,167.970 39.129,168.125 39.224 C 168.194 39.267,168.250 38.784,168.250 38.151 C 168.250 37.518,168.244 37.000,168.236 37.000 C 168.228 37.000,168.172 37.050,168.111 37.111 M183.889 38.167 C 183.889 38.854,183.919 39.135,183.955 38.792 C 183.991 38.448,183.991 37.885,183.955 37.542 C 183.919 37.198,183.889 37.479,183.889 38.167 M234.971 37.667 L 235.034 38.326 231.975 38.377 L 228.917 38.428 232.000 38.422 L 235.083 38.417 235.137 37.854 C 235.167 37.544,235.127 37.227,235.050 37.150 C 234.972 37.072,234.937 37.305,234.971 37.667 M169.053 38.167 C 169.053 38.762,169.084 39.006,169.121 38.708 C 169.158 38.410,169.158 37.923,169.121 37.625 C 169.084 37.327,169.053 37.571,169.053 38.167 M182.911 38.167 C 182.911 39.080,182.932 39.153,183.063 38.696 C 183.154 38.378,183.154 37.956,183.063 37.637 C 182.932 37.180,182.911 37.253,182.911 38.167 M197.391 37.941 C 197.415 38.229,197.207 38.256,194.333 38.339 L 191.250 38.428 194.271 38.464 C 197.376 38.501,198.091 38.358,197.542 37.808 C 197.416 37.683,197.372 37.722,197.391 37.941 M165.875 38.917 C 165.877 39.283,165.911 39.414,165.951 39.206 C 165.991 38.999,165.990 38.699,165.948 38.540 C 165.906 38.380,165.874 38.550,165.875 38.917 M175.480 39.130 C 175.425 39.461,175.450 39.617,175.542 39.524 C 175.626 39.440,175.667 39.194,175.633 38.978 C 175.580 38.644,175.557 38.667,175.480 39.130 M176.336 38.931 C 176.337 39.106,176.415 39.362,176.508 39.500 C 176.631 39.683,176.647 39.615,176.565 39.250 C 176.428 38.637,176.332 38.504,176.336 38.931 M233.625 40.194 C 233.083 40.802,233.021 41.017,233.515 40.569 C 233.822 40.292,234.259 39.656,234.131 39.673 C 234.105 39.677,233.877 39.911,233.625 40.194 M151.000 39.885 C 151.000 39.914,151.244 40.158,151.542 40.427 L 152.083 40.917 151.594 40.375 C 151.138 39.870,151.000 39.757,151.000 39.885 M165.875 40.750 C 165.877 41.117,165.911 41.247,165.951 41.040 C 165.991 40.832,165.990 40.532,165.948 40.373 C 165.906 40.214,165.874 40.383,165.875 40.750 M174.573 40.875 L 174.083 41.417 174.625 40.927 C 175.130 40.471,175.243 40.333,175.115 40.333 C 175.086 40.333,174.842 40.577,174.573 40.875 M182.906 40.875 L 182.417 41.417 182.958 40.927 C 183.463 40.471,183.577 40.333,183.448 40.333 C 183.419 40.333,183.175 40.577,182.906 40.875 M171.542 41.282 C 171.702 41.323,171.965 41.323,172.125 41.282 C 172.285 41.240,172.154 41.205,171.833 41.205 C 171.512 41.205,171.381 41.240,171.542 41.282 M193.708 41.282 C 193.869 41.323,194.131 41.323,194.292 41.282 C 194.452 41.240,194.321 41.205,194.000 41.205 C 193.679 41.205,193.548 41.240,193.708 41.282 M231.294 41.285 C 231.501 41.324,231.801 41.323,231.960 41.281 C 232.120 41.239,231.950 41.207,231.583 41.209 C 231.217 41.211,231.086 41.245,231.294 41.285 " stroke="none" fill="#6cbcdc" fill-rule="evenodd"></path></g></svg>